<svg width="128" height="128" viewBox="0 0 128 128" fill="none" xmlns="http://www.w3.org/2000/svg">
<path d="M63.9958 119.991C101.333 119.991 119.991 94.9212 119.991 63.9956C119.991 33.07 101.333 8 63.9958 8C26.658 8 8.00024 33.07 8.00024 63.9956C8.00024 94.9212 26.658 119.991 63.9958 119.991Z" fill="url(#paint0_radial_54851_965)"/>
<path d="M63.9958 119.991C101.333 119.991 119.991 94.9212 119.991 63.9956C119.991 33.07 101.333 8 63.9958 8C26.658 8 8.00024 33.07 8.00024 63.9956C8.00024 94.9212 26.658 119.991 63.9958 119.991Z" fill="url(#paint1_radial_54851_965)"/>
<path d="M63.9958 119.991C101.333 119.991 119.991 94.9212 119.991 63.9956C119.991 33.07 101.333 8 63.9958 8C26.658 8 8.00024 33.07 8.00024 63.9956C8.00024 94.9212 26.658 119.991 63.9958 119.991Z" fill="url(#paint2_radial_54851_965)"/>
<path d="M63.9958 119.991C101.333 119.991 119.991 94.9212 119.991 63.9956C119.991 33.07 101.333 8 63.9958 8C26.658 8 8.00024 33.07 8.00024 63.9956C8.00024 94.9212 26.658 119.991 63.9958 119.991Z" fill="url(#paint3_radial_54851_965)" fill-opacity="0.6"/>
<path d="M63.9958 119.991C101.333 119.991 119.991 94.9212 119.991 63.9956C119.991 33.07 101.333 8 63.9958 8C26.658 8 8.00024 33.07 8.00024 63.9956C8.00024 94.9212 26.658 119.991 63.9958 119.991Z" fill="url(#paint4_radial_54851_965)"/>
<path d="M63.9958 119.991C101.333 119.991 119.991 94.9212 119.991 63.9956C119.991 33.07 101.333 8 63.9958 8C26.658 8 8.00024 33.07 8.00024 63.9956C8.00024 94.9212 26.658 119.991 63.9958 119.991Z" fill="url(#paint5_radial_54851_965)"/>
<path d="M63.9958 119.991C101.333 119.991 119.991 94.9212 119.991 63.9956C119.991 33.07 101.333 8 63.9958 8C26.658 8 8.00024 33.07 8.00024 63.9956C8.00024 94.9212 26.658 119.991 63.9958 119.991Z" fill="url(#paint6_radial_54851_965)"/>
<path d="M63.9958 119.991C101.333 119.991 119.991 94.9212 119.991 63.9956C119.991 33.07 101.333 8 63.9958 8C26.658 8 8.00024 33.07 8.00024 63.9956C8.00024 94.9212 26.658 119.991 63.9958 119.991Z" fill="url(#paint7_radial_54851_965)"/>
<path fill-rule="evenodd" clip-rule="evenodd" d="M24.0002 54C24.0002 53.324 24.0375 52.6568 24.1101 52H59.8902C59.963 52.6568 60.0002 53.324 60.0002 54C60.0002 63.9412 51.9414 72 42.0002 72C32.0591 72 24.0002 63.9412 24.0002 54ZM68.0002 54C68.0002 53.324 68.0374 52.6568 68.1102 52H103.89C103.963 52.6568 104 53.324 104 54C104 63.9412 95.9415 72 86.0003 72C76.0591 72 68.0002 63.9412 68.0002 54Z" fill="white"/>
<path fill-rule="evenodd" clip-rule="evenodd" d="M40 53C40 52.662 40.0184 52.3284 40.0548 52H57.9452C57.9816 52.3284 58 52.662 58 53C58 57.978 53.978 62 49 62C44.022 61.96 40 57.938 40 53ZM84 53C84 52.662 84.0184 52.3284 84.0548 52H101.945C101.982 52.3284 102 52.662 102 53C102 57.978 97.978 62 93 62C88.022 61.96 84 57.938 84 53Z" fill="url(#paint8_linear_54851_965)"/>
<path fill-rule="evenodd" clip-rule="evenodd" d="M83.295 83.1883C84.8275 84.6381 84.9896 87.1643 83.6565 88.8314C78.9054 94.7738 72.4429 98.1326 65.7634 98.7971C58.6655 99.5032 51.3225 97.1669 45.5272 91.6554C43.9984 90.2012 43.8425 87.6743 45.1797 86.0111C46.5164 84.3482 48.8399 84.1787 50.3687 85.633C54.77 89.8186 60.395 91.4873 65.7634 90.7509C70.382 90.1174 74.8106 87.704 78.1066 83.5818C79.4397 81.9147 81.7623 81.7383 83.295 83.1883Z" fill="url(#paint9_linear_54851_965)"/>
<path d="M26.0002 38C27.3336 34 32.4002 26 42.0002 26" stroke="url(#paint10_linear_54851_965)" stroke-width="3.67761" stroke-linecap="round" stroke-linejoin="round"/>
<path d="M102 38C100.667 34 95.6 26 86 26" stroke="url(#paint11_linear_54851_965)" stroke-width="3.67761" stroke-linecap="round" stroke-linejoin="round"/>
<path d="M75.1601 88.08C72.0801 88.08 72.0801 85 72.0801 85V72.08C72.0801 67.68 68.4801 64.08 64.0801 64.08C59.6801 64.08 56.0801 67.68 56.0801 72.08V105V110.88C56.0801 120.24 63.6801 127.8 73.0001 127.8H75.1201C84.4801 127.8 92.0401 120.2 92.0401 110.88V105C92.0801 95.68 85.2001 88.08 75.1601 88.08Z" fill="url(#paint12_radial_54851_965)"/>
<path d="M72.9797 87.2684C72.0801 86.3556 72.0801 85 72.0801 85V72.08C72.0801 67.68 68.4801 64.08 64.0801 64.08C59.6801 64.08 56.0801 67.68 56.0801 72.08V105C66.0001 96 68.0001 94 72.9797 87.2684Z" fill="url(#paint13_linear_54851_965)"/>
<path d="M75.1601 88.08C72.0801 88.08 72.0801 85 72.0801 85V72.08C72.0801 67.68 68.4801 64.08 64.0801 64.08C59.6801 64.08 56.0801 67.68 56.0801 72.08V105V110.88C56.0801 120.24 63.6801 127.8 73.0001 127.8H75.1201C84.4801 127.8 92.0401 120.2 92.0401 110.88V105C92.0801 95.68 85.2001 88.08 75.1601 88.08Z" fill="url(#paint14_radial_54851_965)"/>
<defs>
<radialGradient id="paint0_radial_54851_965" cx="0" cy="0" r="1" gradientUnits="userSpaceOnUse" gradientTransform="translate(102 36) rotate(132.839) scale(150.013)">
<stop stop-color="#FFF478"/>
<stop offset="0.474827" stop-color="#FFB02E"/>
<stop offset="1" stop-color="#F70A8D"/>
</radialGradient>
<radialGradient id="paint1_radial_54851_965" cx="0" cy="0" r="1" gradientUnits="userSpaceOnUse" gradientTransform="translate(102 36) rotate(131.878) scale(155.795)">
<stop stop-color="#FFF478"/>
<stop offset="0.474827" stop-color="#FFB02E"/>
<stop offset="1" stop-color="#F70A8D"/>
</radialGradient>
<radialGradient id="paint2_radial_54851_965" cx="0" cy="0" r="1" gradientUnits="userSpaceOnUse" gradientTransform="translate(64.0002 50) rotate(101.31) scale(71.3864 91.4324)">
<stop offset="0.787821" stop-color="#F59639" stop-opacity="0"/>
<stop offset="0.972509" stop-color="#FF7DCE"/>
</radialGradient>
<radialGradient id="paint3_radial_54851_965" cx="0" cy="0" r="1" gradientUnits="userSpaceOnUse" gradientTransform="translate(72.0002 56) rotate(135) scale(164.049)">
<stop offset="0.314853" stop-opacity="0"/>
<stop offset="1"/>
</radialGradient>
<radialGradient id="paint4_radial_54851_965" cx="0" cy="0" r="1" gradientUnits="userSpaceOnUse" gradientTransform="translate(64.0002 68) rotate(77.692) scale(112.588)">
<stop offset="0.507903" stop-color="#7D6133" stop-opacity="0"/>
<stop offset="1" stop-color="#715B32"/>
</radialGradient>
<radialGradient id="paint5_radial_54851_965" cx="0" cy="0" r="1" gradientUnits="userSpaceOnUse" gradientTransform="translate(66.0002 66) rotate(55.7131) scale(53.254 38.6013)">
<stop stop-color="#FFB849"/>
<stop offset="1" stop-color="#FFB847" stop-opacity="0"/>
</radialGradient>
<radialGradient id="paint6_radial_54851_965" cx="0" cy="0" r="1" gradientUnits="userSpaceOnUse" gradientTransform="translate(82.0002 72) rotate(9.86581) scale(46.6904)">
<stop stop-color="#FFA64B"/>
<stop offset="0.900412" stop-color="#FFAE46" stop-opacity="0"/>
</radialGradient>
<radialGradient id="paint7_radial_54851_965" cx="0" cy="0" r="1" gradientUnits="userSpaceOnUse" gradientTransform="translate(70.0002 60) rotate(43.9708) scale(236.212)">
<stop offset="0.185425" stop-opacity="0"/>
<stop offset="1" stop-opacity="0.4"/>
</radialGradient>
<linearGradient id="paint8_linear_54851_965" x1="94.846" y1="52" x2="93.9944" y2="62.2992" gradientUnits="userSpaceOnUse">
<stop stop-color="#553B3E"/>
<stop offset="1" stop-color="#3D2432"/>
</linearGradient>
<linearGradient id="paint9_linear_54851_965" x1="70.1478" y1="72.1577" x2="63.2615" y2="87.6602" gradientUnits="userSpaceOnUse">
<stop stop-color="#4F3C43"/>
<stop offset="1" stop-color="#512756"/>
</linearGradient>
<linearGradient id="paint10_linear_54851_965" x1="27.3336" y1="41.6" x2="27.3336" y2="34.4" gradientUnits="userSpaceOnUse">
<stop offset="0.0299084" stop-color="#524049"/>
<stop offset="1" stop-color="#4A2C42"/>
</linearGradient>
<linearGradient id="paint11_linear_54851_965" x1="100.667" y1="41.6" x2="100.667" y2="34.4" gradientUnits="userSpaceOnUse">
<stop offset="0.0299084" stop-color="#524049"/>
<stop offset="1" stop-color="#4A2C42"/>
</linearGradient>
<radialGradient id="paint12_radial_54851_965" cx="0" cy="0" r="1" gradientUnits="userSpaceOnUse" gradientTransform="translate(88.0001 92) rotate(-180) scale(36 74.2084)">
<stop offset="0.143441" stop-color="#FFEA67"/>
<stop offset="0.574707" stop-color="#FFC13F"/>
<stop offset="0.904482" stop-color="#DF9030"/>
</radialGradient>
<linearGradient id="paint13_linear_54851_965" x1="74.0001" y1="82" x2="54.0001" y2="84" gradientUnits="userSpaceOnUse">
<stop offset="0.143441" stop-color="#FFEA67"/>
<stop offset="1" stop-color="#E09332" stop-opacity="0"/>
</linearGradient>
<radialGradient id="paint14_radial_54851_965" cx="0" cy="0" r="1" gradientUnits="userSpaceOnUse" gradientTransform="translate(64.0001 80) rotate(105.422) scale(60.1664 84.2828)">
<stop offset="0.555608" stop-color="#FFEA67" stop-opacity="0"/>
<stop offset="0.793942" stop-color="#F9708E"/>
</radialGradient>
</defs>
</svg>
