<svg width="120" height="120" viewBox="0 0 120 120" fill="none" xmlns="http://www.w3.org/2000/svg">
<path d="M59.9959 112.492C94.9999 112.492 112.492 88.9886 112.492 59.9959C112.492 31.0032 94.9999 7.5 59.9959 7.5C24.9916 7.5 7.5 31.0032 7.5 59.9959C7.5 88.9886 24.9916 112.492 59.9959 112.492Z" fill="url(#paint0_radial_54892_143)"/>
<path d="M59.9959 112.492C94.9999 112.492 112.492 88.9886 112.492 59.9959C112.492 31.0032 94.9999 7.5 59.9959 7.5C24.9916 7.5 7.5 31.0032 7.5 59.9959C7.5 88.9886 24.9916 112.492 59.9959 112.492Z" fill="url(#paint1_radial_54892_143)"/>
<path d="M59.9959 112.492C94.9999 112.492 112.492 88.9886 112.492 59.9959C112.492 31.0032 94.9999 7.5 59.9959 7.5C24.9916 7.5 7.5 31.0032 7.5 59.9959C7.5 88.9886 24.9916 112.492 59.9959 112.492Z" fill="url(#paint2_radial_54892_143)"/>
<path d="M59.9959 112.492C94.9999 112.492 112.492 88.9886 112.492 59.9959C112.492 31.0032 94.9999 7.5 59.9959 7.5C24.9916 7.5 7.5 31.0032 7.5 59.9959C7.5 88.9886 24.9916 112.492 59.9959 112.492Z" fill="url(#paint3_radial_54892_143)" fill-opacity="0.6"/>
<path d="M59.9959 112.492C94.9999 112.492 112.492 88.9886 112.492 59.9959C112.492 31.0032 94.9999 7.5 59.9959 7.5C24.9916 7.5 7.5 31.0032 7.5 59.9959C7.5 88.9886 24.9916 112.492 59.9959 112.492Z" fill="url(#paint4_radial_54892_143)"/>
<path d="M59.9959 112.492C94.9999 112.492 112.492 88.9886 112.492 59.9959C112.492 31.0032 94.9999 7.5 59.9959 7.5C24.9916 7.5 7.5 31.0032 7.5 59.9959C7.5 88.9886 24.9916 112.492 59.9959 112.492Z" fill="url(#paint5_radial_54892_143)"/>
<path d="M59.9959 112.492C94.9999 112.492 112.492 88.9886 112.492 59.9959C112.492 31.0032 94.9999 7.5 59.9959 7.5C24.9916 7.5 7.5 31.0032 7.5 59.9959C7.5 88.9886 24.9916 112.492 59.9959 112.492Z" fill="url(#paint6_radial_54892_143)"/>
<path d="M59.9959 112.492C94.9999 112.492 112.492 88.9886 112.492 59.9959C112.492 31.0032 94.9999 7.5 59.9959 7.5C24.9916 7.5 7.5 31.0032 7.5 59.9959C7.5 88.9886 24.9916 112.492 59.9959 112.492Z" fill="url(#paint7_radial_54892_143)"/>
<path d="M26.2498 63.75C26.2498 63.75 29.9998 67.5 37.4998 67.5C44.9998 67.5 48.7498 63.75 48.7498 63.75" stroke="url(#paint8_linear_54892_143)" stroke-width="7.5" stroke-linecap="round" stroke-linejoin="round"/>
<path d="M71.25 63.75C71.25 63.75 75 67.5 82.5 67.5C90 67.5 93.75 63.75 93.75 63.75" stroke="url(#paint9_linear_54892_143)" stroke-width="7.5" stroke-linecap="round" stroke-linejoin="round"/>
<path d="M68.5829 87.5314C68.5829 82.7913 64.7403 78.9486 60.0002 78.9486C55.2601 78.9486 51.4175 82.7913 51.4175 87.5314C51.4175 92.2715 55.2601 96.1141 60.0002 96.1141C64.7403 96.1141 68.5829 92.2715 68.5829 87.5314Z" fill="url(#paint10_linear_54892_143)"/>
<path d="M105 37.5C105 16.7893 88.2107 0 67.5 0C46.7893 0 30 16.7893 30 37.5C30 58.2107 46.7893 75 67.5 75C88.2107 75 105 58.2107 105 37.5Z" fill="url(#paint11_radial_54892_143)"/>
<path fill-rule="evenodd" clip-rule="evenodd" d="M107.925 8.90343C108.842 10.0458 109.009 11.6171 108.354 12.927L100.751 28.1344L107.841 26.3619C109.85 25.8596 111.886 27.0812 112.388 29.0904C112.89 31.0996 111.669 33.1356 109.659 33.6379L94.6594 37.3879C93.2389 37.743 91.7412 37.2388 90.825 36.0964C89.9085 34.954 89.7409 33.3828 90.396 32.0728L97.9995 16.8654L90.9094 18.6379C88.9002 19.1403 86.8643 17.9187 86.3618 15.9094C85.8597 13.9002 87.0814 11.8642 89.0907 11.3619L104.091 7.61189C105.511 7.25669 107.009 7.76107 107.925 8.90343Z" fill="url(#paint12_linear_54892_143)"/>
<path fill-rule="evenodd" clip-rule="evenodd" d="M107.925 8.90343C108.842 10.0458 109.009 11.6171 108.354 12.927L100.751 28.1344L107.841 26.3619C109.85 25.8596 111.886 27.0812 112.388 29.0904C112.89 31.0996 111.669 33.1356 109.659 33.6379L94.6594 37.3879C93.2389 37.743 91.7412 37.2388 90.825 36.0964C89.9085 34.954 89.7409 33.3828 90.396 32.0728L97.9995 16.8654L90.9094 18.6379C88.9002 19.1403 86.8643 17.9187 86.3618 15.9094C85.8597 13.9002 87.0814 11.8642 89.0907 11.3619L104.091 7.61189C105.511 7.25669 107.009 7.76107 107.925 8.90343Z" fill="url(#paint13_radial_54892_143)"/>
<path fill-rule="evenodd" clip-rule="evenodd" d="M97.7872 9.18772L104.091 7.61189C105.511 7.25669 107.009 7.76107 107.925 8.90343C108.842 10.0458 109.009 11.6171 108.354 12.927L105.449 18.7368C105.301 18.7455 105.151 18.75 105 18.75C100.858 18.75 97.5 15.3921 97.5 11.25C97.5 10.5348 97.6001 9.84292 97.7872 9.18772Z" fill="url(#paint14_radial_54892_143)"/>
<path fill-rule="evenodd" clip-rule="evenodd" d="M71.25 24.375C71.25 23.3395 72.0896 22.5 73.125 22.5H84.375C85.0853 22.5 85.7344 22.9013 86.052 23.5365C86.3696 24.1717 86.301 24.9318 85.875 25.5L76.875 37.5H84.375C85.4104 37.5 86.25 38.3396 86.25 39.375C86.25 40.4104 85.4104 41.25 84.375 41.25H73.125C72.4147 41.25 71.7656 40.8488 71.448 40.2135C71.1304 39.5783 71.199 38.8181 71.625 38.25L80.625 26.25H73.125C72.0896 26.25 71.25 25.4105 71.25 24.375Z" fill="#00A6ED"/>
<path fill-rule="evenodd" clip-rule="evenodd" d="M52.5963 31.2821C52.9236 30.2997 53.9856 29.7688 54.9678 30.0963L66.2178 33.8463C66.9194 34.0801 67.4178 34.7044 67.4909 35.4403C67.5636 36.1762 67.1973 36.8861 66.5553 37.253L57.0711 42.6724L64.3428 45.0964C65.3253 45.4237 65.8563 46.4857 65.5289 47.4679C65.2011 48.4504 64.1395 48.9814 63.157 48.654L51.907 44.904C51.2054 44.67 50.707 44.0456 50.6339 43.3099C50.5611 42.5741 50.9275 41.8639 51.5695 41.4971L61.0536 36.0777L53.782 33.6539C52.7995 33.3264 52.2685 32.2645 52.5963 31.2821Z" fill="#00A6ED"/>
<path d="M70.4627 82.575C67.5752 82.575 67.5752 79.6875 67.5752 79.6875V67.575C67.5752 63.45 64.2002 60.075 60.0752 60.075C55.9502 60.075 52.5752 63.45 52.5752 67.575V98.4375V103.95C52.5752 112.725 59.7002 119.813 68.4377 119.813H70.4252C79.2002 119.813 86.2877 112.688 86.2877 103.95V98.4375C86.3252 89.7 79.8752 82.575 70.4627 82.575Z" fill="url(#paint15_radial_54892_143)"/>
<path d="M68.4186 81.8141C67.5752 80.9584 67.5752 79.6875 67.5752 79.6875V67.575C67.5752 63.45 64.2002 60.075 60.0752 60.075C55.9502 60.075 52.5752 63.45 52.5752 67.575V98.4375C61.8752 90 63.7502 88.125 68.4186 81.8141Z" fill="url(#paint16_linear_54892_143)"/>
<path d="M70.4627 82.575C67.5752 82.575 67.5752 79.6875 67.5752 79.6875V67.575C67.5752 63.45 64.2002 60.075 60.0752 60.075C55.9502 60.075 52.5752 63.45 52.5752 67.575V98.4375V103.95C52.5752 112.725 59.7002 119.813 68.4377 119.813H70.4252C79.2002 119.813 86.2877 112.688 86.2877 103.95V98.4375C86.3252 89.7 79.8752 82.575 70.4627 82.575Z" fill="url(#paint17_radial_54892_143)"/>
<defs>
<radialGradient id="paint0_radial_54892_143" cx="0" cy="0" r="1" gradientUnits="userSpaceOnUse" gradientTransform="translate(95.625 33.75) rotate(132.839) scale(140.637)">
<stop stop-color="#FFF478"/>
<stop offset="0.474827" stop-color="#FFB02E"/>
<stop offset="1" stop-color="#F70A8D"/>
</radialGradient>
<radialGradient id="paint1_radial_54892_143" cx="0" cy="0" r="1" gradientUnits="userSpaceOnUse" gradientTransform="translate(95.625 33.75) rotate(131.878) scale(146.058)">
<stop stop-color="#FFF478"/>
<stop offset="0.474827" stop-color="#FFB02E"/>
<stop offset="1" stop-color="#F70A8D"/>
</radialGradient>
<radialGradient id="paint2_radial_54892_143" cx="0" cy="0" r="1" gradientUnits="userSpaceOnUse" gradientTransform="translate(60 46.875) rotate(101.31) scale(66.9248 85.7179)">
<stop offset="0.787821" stop-color="#F59639" stop-opacity="0"/>
<stop offset="0.972509" stop-color="#FF7DCE"/>
</radialGradient>
<radialGradient id="paint3_radial_54892_143" cx="0" cy="0" r="1" gradientUnits="userSpaceOnUse" gradientTransform="translate(67.5 52.5) rotate(135) scale(153.796)">
<stop offset="0.314853" stop-opacity="0"/>
<stop offset="1"/>
</radialGradient>
<radialGradient id="paint4_radial_54892_143" cx="0" cy="0" r="1" gradientUnits="userSpaceOnUse" gradientTransform="translate(60 63.75) rotate(77.692) scale(105.551)">
<stop offset="0.507903" stop-color="#7D6133" stop-opacity="0"/>
<stop offset="1" stop-color="#715B32"/>
</radialGradient>
<radialGradient id="paint5_radial_54892_143" cx="0" cy="0" r="1" gradientUnits="userSpaceOnUse" gradientTransform="translate(61.875 61.875) rotate(55.7131) scale(49.9256 36.1887)">
<stop stop-color="#FFB849"/>
<stop offset="1" stop-color="#FFB847" stop-opacity="0"/>
</radialGradient>
<radialGradient id="paint6_radial_54892_143" cx="0" cy="0" r="1" gradientUnits="userSpaceOnUse" gradientTransform="translate(76.875 67.5) rotate(9.86581) scale(43.7723)">
<stop stop-color="#FFA64B"/>
<stop offset="0.900412" stop-color="#FFAE46" stop-opacity="0"/>
</radialGradient>
<radialGradient id="paint7_radial_54892_143" cx="0" cy="0" r="1" gradientUnits="userSpaceOnUse" gradientTransform="translate(65.625 56.25) rotate(43.9708) scale(221.448)">
<stop offset="0.185425" stop-opacity="0"/>
<stop offset="1" stop-opacity="0.4"/>
</radialGradient>
<linearGradient id="paint8_linear_54892_143" x1="41.9998" y1="62.8125" x2="41.1181" y2="68.103" gradientUnits="userSpaceOnUse">
<stop stop-color="#52383E"/>
<stop offset="1" stop-color="#432A35"/>
</linearGradient>
<linearGradient id="paint9_linear_54892_143" x1="87" y1="62.8125" x2="86.1184" y2="68.103" gradientUnits="userSpaceOnUse">
<stop stop-color="#52383E"/>
<stop offset="1" stop-color="#432A35"/>
</linearGradient>
<linearGradient id="paint10_linear_54892_143" x1="60.0003" y1="75.8199" x2="60.0003" y2="87.5313" gradientUnits="userSpaceOnUse">
<stop stop-color="#4F3C43"/>
<stop offset="1" stop-color="#512756"/>
</linearGradient>
<radialGradient id="paint11_radial_54892_143" cx="0" cy="0" r="1" gradientUnits="userSpaceOnUse" gradientTransform="translate(61.875 43.125) rotate(-21.8014) scale(30.2916 21.6208)">
<stop stop-color="#EFA031"/>
<stop offset="1" stop-color="#F0A83E" stop-opacity="0"/>
</radialGradient>
<linearGradient id="paint12_linear_54892_143" x1="90" y1="31.8749" x2="105" y2="24.3749" gradientUnits="userSpaceOnUse">
<stop stop-color="#2C80E2"/>
<stop offset="1" stop-color="#00A6ED"/>
</linearGradient>
<radialGradient id="paint13_radial_54892_143" cx="0" cy="0" r="1" gradientUnits="userSpaceOnUse" gradientTransform="translate(108.75 28.125) rotate(164.055) scale(13.6502 3.15365)">
<stop stop-color="#63BEFE"/>
<stop offset="1" stop-color="#63BEFE" stop-opacity="0"/>
</radialGradient>
<radialGradient id="paint14_radial_54892_143" cx="0" cy="0" r="1" gradientUnits="userSpaceOnUse" gradientTransform="translate(105 9.37499) rotate(45) scale(5.30329)">
<stop stop-color="#63BEFE"/>
<stop offset="1" stop-color="#4FB5FC" stop-opacity="0"/>
</radialGradient>
<radialGradient id="paint15_radial_54892_143" cx="0" cy="0" r="1" gradientUnits="userSpaceOnUse" gradientTransform="translate(82.5002 86.25) rotate(-180) scale(33.75 69.5704)">
<stop offset="0.143441" stop-color="#FFEA67"/>
<stop offset="0.574707" stop-color="#FFC13F"/>
<stop offset="0.904482" stop-color="#DF9030"/>
</radialGradient>
<linearGradient id="paint16_linear_54892_143" x1="69.3752" y1="76.875" x2="50.6252" y2="78.75" gradientUnits="userSpaceOnUse">
<stop offset="0.143441" stop-color="#FFEA67"/>
<stop offset="1" stop-color="#E09332" stop-opacity="0"/>
</linearGradient>
<radialGradient id="paint17_radial_54892_143" cx="0" cy="0" r="1" gradientUnits="userSpaceOnUse" gradientTransform="translate(60.0002 75) rotate(105.422) scale(56.406 79.0151)">
<stop offset="0.555608" stop-color="#FFEA67" stop-opacity="0"/>
<stop offset="0.793942" stop-color="#F9708E"/>
</radialGradient>
</defs>
</svg>
