<svg width="24" height="24" viewBox="0 0 24 24" fill="none" xmlns="http://www.w3.org/2000/svg">
<g clip-path="url(#clip0_54851_1026)">
<path d="M10.0283 18.696C11.5515 18.087 12.924 18.6705 13.596 19.8675C13.6935 20.041 13.8559 20.1686 14.0475 20.2223C14.239 20.276 14.4441 20.2515 14.6175 20.154C14.791 20.0565 14.9186 19.8942 14.9724 19.7026C15.0261 19.511 15.0015 19.306 14.904 19.1325C13.866 17.2845 11.6985 16.413 9.4718 17.3032C9.29015 17.3792 9.14563 17.5235 9.06944 17.705C8.99324 17.8865 8.99148 18.0907 9.06453 18.2735C9.13757 18.4564 9.27958 18.6031 9.45989 18.6822C9.6402 18.7612 9.84435 18.7662 10.0283 18.696ZM15.75 15C16.3468 15 16.9191 14.7629 17.341 14.341C17.763 13.919 18 13.3467 18 12.75C18 12.1533 17.763 11.581 17.341 11.159C16.9191 10.7371 16.3468 10.5 15.75 10.5C15.1533 10.5 14.581 10.7371 14.1591 11.159C13.7371 11.581 13.5 12.1533 13.5 12.75C13.5 13.3467 13.7371 13.919 14.1591 14.341C14.581 14.7629 15.1533 15 15.75 15Z" fill="white"/>
<path d="M11.9992 0.75C8.32125 0.75 5.48475 1.9905 3.57225 4.06725C1.6695 6.1335 0.75 8.9535 0.75 11.9992C0.75 15.045 1.6695 17.8643 3.57225 19.9313C5.48475 22.008 8.32125 23.2485 11.9992 23.2485C15.6772 23.2485 18.5138 22.008 20.4255 19.9313C22.3282 17.865 23.2485 15.045 23.2485 11.9992C23.2485 8.9535 22.3275 6.1335 20.4255 4.06725C18.513 1.9905 15.6772 0.75 12 0.75M2.25 11.9992C2.25 11.7517 2.25675 11.5072 2.27025 11.2657C3.92025 11.2732 5.511 11.1233 7.01925 10.866C6.58166 11.1519 6.25729 11.5813 6.10184 12.0804C5.94639 12.5795 5.96957 13.1171 6.16739 13.601C6.3652 14.0848 6.72532 14.4847 7.18589 14.7319C7.64646 14.9792 8.17873 15.0583 8.69131 14.9558C9.20389 14.8533 9.66478 14.5755 9.99483 14.1702C10.3249 13.7648 10.5035 13.2572 10.5 12.7345C10.4965 12.2117 10.3111 11.7065 9.97567 11.3056C9.64022 10.9047 9.17566 10.6331 8.66175 10.5375C11.4135 9.9075 13.8353 8.95275 15.7703 8.019C15.957 8.9145 16.863 10.5 19.125 10.5C19.2245 10.5 19.3198 10.4605 19.3902 10.3902C19.4605 10.3198 19.5 10.2245 19.5 10.125C19.5 10.0255 19.4605 9.93016 19.3902 9.85983C19.3198 9.78951 19.2245 9.75 19.125 9.75C17.2575 9.75 16.599 8.436 16.4948 7.8135C16.4873 7.76744 16.4712 7.72318 16.4475 7.683C17.617 7.09196 18.7503 6.43179 19.8412 5.706C21.0982 7.3785 21.7485 9.56175 21.7485 11.9985C21.7485 14.7517 20.919 17.181 19.3223 18.915C17.7353 20.6385 15.3225 21.7485 11.9992 21.7485C8.676 21.7485 6.26325 20.6385 4.67625 18.915C3.07875 17.1825 2.25 14.7525 2.25 12M18.8197 4.5825C16.4633 6.1305 10.1295 9.75 2.445 9.765C2.5625 9.117 2.732 8.4995 2.9535 7.9125C7.48875 8.05575 13.0672 6.4095 16.761 3.21525C17.512 3.56504 18.206 4.02596 18.8197 4.5825ZM15.9802 2.89275C15.0228 3.66867 13.984 4.33835 12.882 4.89C11.622 4.125 9.966 3.72 8.43 3.5175C7.92689 3.45171 7.42156 3.40418 6.915 3.375C8.28375 2.664 9.972 2.25 11.9992 2.25C13.512 2.25 14.8365 2.48025 15.9795 2.8935M5.778 4.089C6.52575 4.09425 7.4145 4.1415 8.3325 4.26225C9.64275 4.43475 10.98 4.75275 12.0502 5.28825C9.2265 6.558 6.05925 7.20975 3.27 7.17C3.63203 6.40819 4.10575 5.70468 4.6755 5.08275C5.01148 4.71789 5.38056 4.38572 5.778 4.089Z" fill="white"/>
</g>
<defs>
<clipPath id="clip0_54851_1026">
<rect width="24" height="24" fill="white"/>
</clipPath>
</defs>
</svg>
