<svg width="24" height="24" viewBox="0 0 24 24" fill="none" xmlns="http://www.w3.org/2000/svg">
<path d="M11.25 1.5293C10.4238 1.5293 9.75586 2.19727 9.75586 3.02344V3.70313C9.04688 3.89648 8.36133 4.18359 7.72266 4.55273L7.23633 4.06641C6.65039 3.48047 5.70703 3.48047 5.12109 4.06641L4.06641 5.12695C3.48047 5.71289 3.48047 6.65625 4.06641 7.24219L4.54688 7.72266C4.17773 8.36133 3.89648 9.04688 3.70313 9.75586H3.02344C2.19727 9.75586 1.5293 10.4238 1.5293 11.25V12.75C1.5293 13.5762 2.19727 14.2441 3.02344 14.2441H3.69727C3.89648 14.9531 4.17773 15.6387 4.54688 16.2773L4.06641 16.7578C3.48047 17.3438 3.48047 18.2871 4.06641 18.873L5.12109 19.9336C5.70703 20.5195 6.65039 20.5195 7.23633 19.9336L7.7168 19.4531C8.36133 19.8164 9.04102 20.1035 9.75586 20.291V20.9766C9.75586 21.8027 10.4238 22.4707 11.25 22.4707H12.7441C13.5762 22.4707 14.2441 21.8027 14.2441 20.9766V20.2969C14.9531 20.1035 15.6387 19.8164 16.2773 19.4473L16.7578 19.9336C17.3438 20.5195 18.2871 20.5195 18.873 19.9336L19.9336 18.873C20.5195 18.2871 20.5195 17.3438 19.9336 16.7578L19.4531 16.2773C19.8164 15.6387 20.1035 14.9531 20.291 14.2441H20.9707C21.8027 14.2441 22.4707 13.5762 22.4707 12.75V11.25C22.4707 10.4238 21.8027 9.75586 20.9707 9.75586H20.2969C20.1035 9.04688 19.8164 8.36133 19.4473 7.72266L19.9336 7.24219C20.5195 6.65625 20.5195 5.71289 19.9336 5.12695L18.873 4.06641C18.2871 3.48047 17.3438 3.48047 16.7578 4.06641L16.2773 4.54688C15.6387 4.18359 14.9531 3.90234 14.2441 3.70898V3.02344C14.2441 2.19727 13.5762 1.5293 12.7441 1.5293H11.25ZM12.0234 7.49414C14.5137 7.49414 16.5234 9.50977 16.5234 11.9941C16.5234 14.4785 14.5137 16.4941 12.0234 16.4941C9.53906 16.4941 7.52344 14.4785 7.52344 11.9941C7.52344 9.50977 9.53906 7.49414 12.0234 7.49414Z" fill="#000006" fill-opacity="0.8"/>
</svg>
