<svg width="35" height="35" viewBox="0 0 35 35" fill="none" xmlns="http://www.w3.org/2000/svg">
<path fill-rule="evenodd" clip-rule="evenodd" d="M14.5834 32.0834C11.4892 32.0834 8.52176 30.8542 6.33384 28.6663C4.14591 26.4783 2.91675 23.5109 2.91675 20.4167C2.91675 17.3225 4.14591 14.355 6.33384 12.1671C8.52176 9.97918 11.4892 8.75002 14.5834 8.75002C17.6776 8.75002 20.6451 9.97918 22.833 12.1671C25.0209 14.355 26.2501 17.3225 26.2501 20.4167C26.2501 23.5109 25.0209 26.4783 22.833 28.6663C20.6451 30.8542 17.6776 32.0834 14.5834 32.0834ZM14.5834 29.1667C15.7325 29.1667 16.8703 28.9404 17.9319 28.5006C18.9935 28.0609 19.9581 27.4164 20.7706 26.6039C21.5831 25.7914 22.2276 24.8268 22.6674 23.7652C23.1071 22.7036 23.3334 21.5658 23.3334 20.4167C23.3334 19.2676 23.1071 18.1298 22.6674 17.0682C22.2276 16.0066 21.5831 15.042 20.7706 14.2295C19.9581 13.417 18.9935 12.7725 17.9319 12.3327C16.8703 11.893 15.7325 11.6667 14.5834 11.6667C12.2628 11.6667 10.0372 12.5886 8.39623 14.2295C6.75529 15.8704 5.83341 18.096 5.83341 20.4167C5.83341 22.7373 6.75529 24.9629 8.39623 26.6039C10.0372 28.2448 12.2628 29.1667 14.5834 29.1667ZM18.9584 21.875C18.9584 23.0353 18.4975 24.1481 17.677 24.9686C16.8565 25.7891 15.7437 26.25 14.5834 26.25C13.4231 26.25 12.3103 25.7891 11.4898 24.9686C10.6694 24.1481 10.2084 23.0353 10.2084 21.875H18.9584ZM11.6667 18.9584C12.0535 18.9584 12.4245 18.8047 12.6979 18.5312C12.9714 18.2577 13.1251 17.8868 13.1251 17.5C13.1251 17.1132 12.9714 16.7423 12.6979 16.4688C12.4245 16.1953 12.0535 16.0417 11.6667 16.0417C11.28 16.0417 10.909 16.1953 10.6356 16.4688C10.3621 16.7423 10.2084 17.1132 10.2084 17.5C10.2084 17.8868 10.3621 18.2577 10.6356 18.5312C10.909 18.8047 11.28 18.9584 11.6667 18.9584ZM17.5001 18.9584C17.1133 18.9584 16.7424 18.8047 16.4689 18.5312C16.1954 18.2577 16.0417 17.8868 16.0417 17.5C16.0417 17.1132 16.1954 16.7423 16.4689 16.4688C16.7424 16.1953 17.1133 16.0417 17.5001 16.0417C17.8869 16.0417 18.2578 16.1953 18.5313 16.4688C18.8048 16.7423 18.9584 17.1132 18.9584 17.5C18.9584 17.8868 18.8048 18.2577 18.5313 18.5312C18.2578 18.8047 17.8869 18.9584 17.5001 18.9584ZM27.1615 11.6667C25.9555 11.4042 22.2397 9.34794 22.2397 5.65106C22.2397 5.07716 22.4202 4.51781 22.7558 4.05224C23.0914 3.58667 23.5649 3.23849 24.1094 3.05701C24.6538 2.87552 25.2415 2.86995 25.7893 3.04106C26.3371 3.21218 26.8172 3.55132 27.1615 4.01044C27.5059 3.55132 27.9859 3.21218 28.5337 3.04106C29.0815 2.86995 29.6693 2.87552 30.2137 3.05701C30.7582 3.23849 31.2317 3.58667 31.5673 4.05224C31.9028 4.51781 32.0834 5.07716 32.0834 5.65106C32.0834 9.34794 28.3676 11.4042 27.1615 11.6667Z" fill="white"/>
</svg>
